# xmcd CD database file
#
# Track frame offsets:
#	150
#	26007
#	55610
#	69930
#	98490
#	121505
#	139922
#	162860
#	188435
#	204545
#	224597
#	249377
#	277797
#	310927
#
# Disc length: 4473 seconds
#
# Revision: 1
# Processed by: cddbd v1.5.2PL0 Copyright (c) Steve Scherf et al.
# Submitted via: CDex 1.70beta3
#
DISCID=b511770e
DTITLE=小沼ようすけ - The Best
DYEAR=2010
DGENRE=Jazz
TTITLE0=Driving
TTITLE1=Fire Street
TTITLE2=Virtual Insanity
TTITLE3=Coffee Please
TTITLE4=Afro-Runner
TTITLE5=海の上で
TTITLE6=Off Shore
TTITLE7=The Lily
TTITLE8=Mystic Rites
TTITLE9=Presence
TTITLE10=Feel Like Makin' Love
TTITLE11=Silver and Orange
TTITLE12=Around The Love
TTITLE13=By The Way
EXTD=YEAR: 2010
EXTT0=
EXTT1=
EXTT2=
EXTT3=
EXTT4=
EXTT5=
EXTT6=
EXTT7=
EXTT8=
EXTT9=
EXTT10=
EXTT11=
EXTT12=
EXTT13=
PLAYORDER=
